<?xml version="1.0" standalone="no"?>
<!DOCTYPE svg PUBLIC "-//W3C//DTD SVG 20010904//EN"
 "http://www.w3.org/TR/2001/REC-SVG-20010904/DTD/svg10.dtd">
<svg version="1.0" xmlns="http://www.w3.org/2000/svg"
 width="847.000000pt" height="847.000000pt" viewBox="0 0 847.000000 847.000000"
 preserveAspectRatio="xMidYMid meet">
<metadata>
Created by potrace 1.14, written by Peter Selinger 2001-2017
</metadata>
<g transform="translate(0.000000,847.000000) scale(0.100000,-0.100000)"
fill="#000000" stroke="none">
<path d="M2915 7919 c-534 -44 -996 -245 -1319 -574 -278 -284 -416 -625 -416
-1027 1 -574 230 -971 765 -1323 286 -188 588 -336 1372 -670 810 -346 1147
-558 1336 -842 56 -84 88 -155 124 -272 26 -82 27 -96 27 -301 0 -185 -3 -228
-22 -306 -58 -247 -158 -431 -315 -581 -77 -73 -205 -173 -224 -173 -4 0 -19
-9 -32 -19 l-23 -18 18 -56 c12 -40 23 -57 35 -57 21 0 214 77 296 119 518
261 835 673 928 1206 34 195 29 488 -11 685 -123 594 -630 1029 -1771 1520
l-201 87 24 42 c38 69 134 200 203 281 166 195 356 343 587 458 103 52 321
126 444 150 93 19 95 19 104 1 5 -11 19 -19 33 -19 18 0 23 6 23 24 0 21 5 24
68 29 121 12 405 7 530 -8 506 -63 924 -289 1237 -670 135 -165 212 -286 315
-494 74 -149 100 -215 176 -441 57 -171 63 -185 85 -185 l24 0 3 878 2 877
-29 0 c-24 0 -33 -7 -46 -34 -23 -48 -105 -123 -162 -147 -74 -32 -186 -43
-304 -30 -120 13 -254 46 -554 135 -296 87 -429 120 -614 153 -146 26 -175 28
-443 28 l-288 0 0 726 0 727 -25 5 c-25 4 -55 -22 -55 -49 0 -6 -18 -36 -41
-68 -50 -69 -111 -103 -209 -115 -140 -18 -232 6 -525 137 -218 97 -351 142
-515 176 -210 43 -392 53 -615 35z m540 -89 c632 -126 1076 -582 1330 -1368
19 -59 35 -112 35 -118 0 -7 -27 -14 -62 -18 -93 -10 -268 -44 -399 -76 -472
-119 -964 -381 -1292 -690 -27 -25 -52 -46 -57 -48 -13 -5 -221 91 -370 171
-322 172 -555 358 -692 554 -190 271 -219 686 -68 998 159 330 496 545 955
610 152 22 478 14 620 -15z"/>
<path d="M2202 4058 c-92 -442 -91 -847 3 -1283 76 -354 218 -688 419 -988 36
-55 66 -100 66 -102 0 -13 -234 76 -342 130 -561 280 -983 862 -1198 1653 -33
119 -34 122 -62 122 l-28 0 2 -992 3 -993 25 -3 c22 -2 30 7 63 73 53 103 113
167 195 207 63 31 73 33 172 33 145 0 228 -20 620 -145 234 -75 459 -140 557
-160 60 -12 64 -15 128 -90 86 -103 267 -275 380 -363 458 -356 987 -558 1645
-628 174 -18 568 -16 725 5 830 110 1444 524 1845 1244 67 120 160 326 160
354 0 19 -65 52 -86 44 -6 -2 -23 -33 -37 -68 -198 -496 -545 -926 -953 -1184
-405 -255 -920 -378 -1450 -344 -623 39 -1086 267 -1436 708 -5 7 -43 63 -84
123 -331 490 -505 1228 -493 2092 l4 256 -115 52 c-63 28 -245 117 -404 198
-159 80 -292 147 -296 149 -4 1 -16 -44 -28 -100z"/>
</g>
</svg>
